solid ASCII
  facet normal 0.000000e+00 0.000000e+00 1.000000e+00
    outer loop
      vertex   0.0 0.0 80.0      vertex   400.0 0.0 80.0      vertex   0.0 400.0 80.0    endloop
  endfacet
  facet normal -0.000000e+00 0.000000e+00 1.000000e+00
    outer loop
      vertex   0.0 400.0 80.0      vertex   400.0 0.0 80.0      vertex   400.0 400.0 80.0    endloop
  endfacet
  facet normal 0.000000e+00 1.000000e+00 -0.000000e+00
    outer loop
      vertex   400.0 400.0 0.0      vertex   0.0 400.0 0.0      vertex   400.0 400.0 80.0    endloop
  endfacet
  facet normal 0.000000e+00 1.000000e+00 0.000000e+00
    outer loop
      vertex   400.0 400.0 80.0      vertex   0.0 400.0 0.0      vertex   0.0 400.0 80.0    endloop
  endfacet
  facet normal 1.000000e+00 0.000000e+00 0.000000e+00
    outer loop
      vertex   400.0 0.0 0.0      vertex   400.0 400.0 0.0      vertex   400.0 0.0 80.0    endloop
  endfacet
  facet normal 1.000000e+00 -0.000000e+00 0.000000e+00
    outer loop
      vertex   400.0 0.0 80.0      vertex   400.0 400.0 0.0      vertex   400.0 400.0 80.0    endloop
  endfacet
  facet normal 0.000000e+00 -1.000000e+00 0.000000e+00
    outer loop
      vertex   0.0 0.0 0.0      vertex   400.0 0.0 0.0      vertex   0.0 0.0 80.0    endloop
  endfacet
  facet normal 0.000000e+00 -1.000000e+00 0.000000e+00
    outer loop
      vertex   0.0 0.0 80.0      vertex   400.0 0.0 0.0      vertex   400.0 0.0 80.0    endloop
  endfacet
  facet normal -1.000000e+00 0.000000e+00 0.000000e+00
    outer loop
      vertex   0.0 400.0 0.0      vertex   0.0 0.0 0.0      vertex   0.0 400.0 80.0    endloop
  endfacet
  facet normal -1.000000e+00 -0.000000e+00 0.000000e+00
    outer loop
      vertex   0.0 400.0 80.0      vertex   0.0 0.0 0.0      vertex   0.0 0.0 80.0    endloop
  endfacet
  facet normal 0.000000e+00 0.000000e+00 -1.000000e+00
    outer loop
      vertex   0.0 400.0 0.0      vertex   400.0 400.0 0.0      vertex   0.0 0.0 0.0    endloop
  endfacet
  facet normal 0.000000e+00 0.000000e+00 -1.000000e+00
    outer loop
      vertex   0.0 0.0 0.0      vertex   400.0 400.0 0.0      vertex   400.0 0.0 0.0    endloop
  endfacet
endsolid
